<?xml version="1.0" encoding="UTF-8"?>
<svg id="Layer_2" data-name="Layer 2" xmlns="http://www.w3.org/2000/svg" viewBox="0 0 175 247">
  <defs>
    <style>
      .cls-1 {
        fill: #c9db2b;
      }

      .cls-2 {
        fill: #e8e8e8;
      }

      .cls-3 {
        fill: #f2ec65;
      }
    </style>
  </defs>
  <g id="Layer_1-2" data-name="Layer 1">
    <g>
      <path class="cls-1" d="M175,73.09v148.41c0,14.08-11.42,25.5-25.5,25.5H25.5c-14.08,0-25.5-11.42-25.5-25.5V25.5C0,11.42,11.42,0,25.5,0h76.42s73.08,73.09,73.08,73.09Z"/>
      <path class="cls-3" d="M175,73.09h-47.58c-14.08,0-25.5-11.42-25.5-25.5V.01l73.08,73.08Z"/>
      <circle class="cls-2" cx="84.73" cy="120.73" r="31.27"/>
      <path class="cls-2" d="M88.01,228.06h-44.04c-.37,0-.74-.01-1.1-.03-11.76-.68-19.54-12.62-16.06-23.87l10.3-33.33c1.42-4.59,5.66-7.72,10.46-7.72h40.06"/>
      <path class="cls-2" d="M86.99,228.06h44.04c.37,0,.74-.01,1.1-.03,11.76-.68,19.54-12.62,16.06-23.87l-10.3-33.33c-1.42-4.59-5.66-7.72-10.46-7.72h-40.06"/>
    </g>
  </g>
</svg>